<svg id="레이어_1" data-name="레이어 1" xmlns="http://www.w3.org/2000/svg" xmlns:xlink="http://www.w3.org/1999/xlink" viewBox="0 0 42.1 55.77"><defs><style>.cls-1{fill:#ec6c5c;}.cls-2{fill:url(#무제_그라디언트_18);}.cls-3{fill:#107e6b;}.cls-4{fill:#f6cf41;}</style><radialGradient id="무제_그라디언트_18" cx="21.11" cy="27.5" r="20.76" gradientUnits="userSpaceOnUse"><stop offset="0" stop-color="#374982"/><stop offset="0.33" stop-color="#36477f"/><stop offset="0.59" stop-color="#314175"/><stop offset="0.84" stop-color="#2a3764"/><stop offset="1" stop-color="#242e54"/></radialGradient></defs><title>웹진용</title><path class="cls-1" d="M7.21,30.12S5.66,40,9.12,46.27s10.69,10,18.85,9.91,17-1.9,19.55-9.44c2.39-7,1.09-16.62,1.09-16.62Z" transform="translate(-6.86 -0.4)"/><path class="cls-1" d="M7.62,23s1-9.76,2.59-13.21C12.15,5.67,15.9,1,18.83.7S24,3.28,27.92,3.28,32.8.43,35.92.4s7.63,6.14,9.23,9.42S47.47,16.57,48.22,23Z" transform="translate(-6.86 -0.4)"/><circle class="cls-2" cx="21.11" cy="27.5" r="20.76"/><path class="cls-3" d="M18.31,13.42c3-.4,5.87-1,8.92-.81h-.81c-1.43.41-2.85,1-4.28,1.43a8.31,8.31,0,0,0-2.84-.48Z" transform="translate(-6.86 -0.4)"/><path class="cls-3" d="M19.52,20c1.2,0,2.62-.62,3.85-.42-.41-1.83-.61-3.66-1-5.49A41.92,41.92,0,0,0,20,18.91Z" transform="translate(-6.86 -0.4)"/><path class="cls-3" d="M9.23,27.9c1.31,0,2.74,0,4,0a13.41,13.41,0,0,0-1.83,1.63c-.82-.2-1.23-.81-1.82-1.35Z" transform="translate(-6.86 -0.4)"/><path class="cls-3" d="M9.77,36.79c1.59-.16,2.81.66,4.44.66a11.76,11.76,0,0,1-2.45-2,7.26,7.26,0,0,0-1.68,1.16Z" transform="translate(-6.86 -0.4)"/><path class="cls-3" d="M10.65,28.73a61.47,61.47,0,0,0,.5,7.5h1a36.11,36.11,0,0,1-.69-7.48Z" transform="translate(-6.86 -0.4)"/><path class="cls-3" d="M15.21,27.9a55.45,55.45,0,0,0,.42,10,6.16,6.16,0,0,1,2,.4c-.82-3-2-5.9-2.3-9.21Z" transform="translate(-6.86 -0.4)"/><path class="cls-3" d="M19.74,27.9c1,0,1.79,0,2.81,0a66.48,66.48,0,0,0-.61,11,74.24,74.24,0,0,1-2.16-10.62C19.76,28,19.74,27.9,19.74,27.9Z" transform="translate(-6.86 -0.4)"/><path class="cls-3" d="M15.21,27.9c.62,0,1,0,1.64,0a38.46,38.46,0,0,0,5.09,11,45.06,45.06,0,0,1-6.59-10.66Z" transform="translate(-6.86 -0.4)"/><path class="cls-3" d="M25.65,27.9c.16,3.85,0,7.51.57,11.38a80.84,80.84,0,0,0,9-5.29c-3.05-1.83-5.9-4.07-9.07-5.8Z" transform="translate(-6.86 -0.4)"/><path class="cls-3" d="M38.41,27.9a88.61,88.61,0,0,1-2.63,10.77,15.79,15.79,0,0,0,3.06-.61c.4-3.05-.21-5.9-.27-9C38.48,28.37,38.41,27.9,38.41,27.9Z" transform="translate(-6.86 -0.4)"/><path class="cls-3" d="M41.83,27.9a68.63,68.63,0,0,1-1,9.75c.41.21,1-.2,1.43-.2A67.68,67.68,0,0,0,42,29C41.88,28.32,41.83,27.9,41.83,27.9Z" transform="translate(-6.86 -0.4)"/><path class="cls-3" d="M46.32,27.9c-1.38,0-3,0-4.43,0v1.83c1.22-.61,2.44-1,3.75-1.55Z" transform="translate(-6.86 -0.4)"/><path class="cls-3" d="M45.74,36.84c-1.61.2-3.24.61-4.87.81,0-.61.41-1,.21-1.63a22.83,22.83,0,0,1,3.94.66Z" transform="translate(-6.86 -0.4)"/><path class="cls-3" d="M46.15,32.47c-1.41-.52-3-.31-4.46-.92,0,.81-.41,1.62-.21,2.44,1.22-.82,2.65-.61,4-1.32Z" transform="translate(-6.86 -0.4)"/><path class="cls-4" d="M28.25,36a1.7,1.7,0,0,0-1-2.19c1,0,1.84-.4,1.84-1.62.61,0,.61.61.81,1,.41.41,1,0,1.63.21-.82.61-1.22,1.42-.61,2.24-.82,0-1.43-.61-2,0Z" transform="translate(-6.86 -0.4)"/><path class="cls-4" d="M9.93,21.55c0,.35.16.61.43.58a.78.78,0,0,0,.55-.71c0-.35-.15-.6-.42-.57A.77.77,0,0,0,9.93,21.55Z" transform="translate(-6.86 -0.4)"/><path class="cls-4" d="M39.46,14.35c.19.1.19.3.19.5.2.21.61.21,1,.21l.2-.21c0-.4-.4-1-.85-1S39.39,14,39.46,14.35Z" transform="translate(-6.86 -0.4)"/><path class="cls-4" d="M33.84,24.59c.11.24.11.64.52.85a.75.75,0,0,0,1-.41c0-.41,0-1-.41-1.22h-.4A.7.7,0,0,0,33.84,24.59Z" transform="translate(-6.86 -0.4)"/><path class="cls-4" d="M20.13,44.71a1.87,1.87,0,0,0,1.4.88c.41,0,.41-.41.61-.61-.2-.81-1.22-.81-1.82-.77A.49.49,0,0,0,20.13,44.71Z" transform="translate(-6.86 -0.4)"/><path class="cls-4" d="M34.69,42c0,.2.14.33.39.29a.59.59,0,0,0,.5-.41c0-.2-.13-.33-.37-.29A.62.62,0,0,0,34.69,42Z" transform="translate(-6.86 -0.4)"/><path class="cls-4" d="M27.13,42.78c0,.32.38.57.84.57s.83-.25.84-.57-.37-.57-.84-.57S27.12,42.47,27.13,42.78Z" transform="translate(-6.86 -0.4)"/><path class="cls-4" d="M25.12,9.51c0,.16.17.29.41.28s.44-.15.45-.32-.18-.29-.42-.28A.42.42,0,0,0,25.12,9.51Z" transform="translate(-6.86 -0.4)"/><path class="cls-4" d="M16.36,21.88c0,.28.12.48.36.45a.68.68,0,0,0,.49-.58c0-.29-.12-.49-.36-.45A.68.68,0,0,0,16.36,21.88Z" transform="translate(-6.86 -0.4)"/><path class="cls-3" d="M29,16.71c.11,1.4,1.33,2.21,2.55,2.82,1.22,0,2.85.21,3.66-1,.82-1.83-.81-3.46-2.24-4.07-1.42,0-3.25,0-3.87,1.58A1.9,1.9,0,0,0,29,16.71Z" transform="translate(-6.86 -0.4)"/><path class="cls-4" d="M31.49,18.27c-.17-.36.05-.81-.06-1.25-.44-.21-.78-.65-1.22-.76.44,0,.88-.23,1.32-.12.22-.22.22-.66.44-.89.22.33.55.55.78.88.44.11.77.11,1.21.22-.11.33-.33.44-.55.66,0,.55.45.88.56,1.32l-1.32-.65c-.33.11-.55.55-1,.49Z" transform="translate(-6.86 -0.4)"/></svg>