<svg id="레이어_1" data-name="레이어 1" xmlns="http://www.w3.org/2000/svg" xmlns:xlink="http://www.w3.org/1999/xlink" viewBox="0 0 425.2 425.2"><defs><style>.cls-1,.cls-2{fill:none;}.cls-2{stroke:#157a68;stroke-linecap:round;stroke-linejoin:round;stroke-width:4px;}.cls-3{fill:#157a68;}.cls-4{clip-path:url(#clip-path);}.cls-5{font-size:246.15px;fill:#ec6b60;font-family:drfont_daraehand, drfont_daraehand;}</style><clipPath id="clip-path"><path class="cls-1" d="M59.11,262.49c0,46.19,40.61,86.14,99.63,105.23a256,256,0,0,0,78.55,12c98.4,0,178.17-52.48,178.17-117.21,0-90.89-57.6-118.81-129.25-72.58-25.93,16.73-73.34,13.36-100-1.93C101.31,139.33,59.11,197.76,59.11,262.49Z"/></clipPath></defs><title>titleLogo</title><line class="cls-2" x1="92.88" y1="88.48" x2="166.09" y2="88.48"/><circle class="cls-3" cx="328.6" cy="92.79" r="31.03"/><polyline class="cls-2" points="129.49 88.47 117.49 114.98 135.17 133.92 126.33 157.9"/><path class="cls-2" d="M59.11,262.49c0,46.19,40.61,86.14,99.63,105.23a256,256,0,0,0,78.55,12c98.4,0,178.17-52.48,178.17-117.21,0-90.89-57.6-118.81-129.25-72.58-25.93,16.73-73.34,13.36-100-1.93C101.31,139.33,59.11,197.76,59.11,262.49Z"/><g class="cls-4"><text class="cls-5" transform="translate(59.11 362.14) scale(0.51 1)">INDIE</text></g><path class="cls-2" d="M51.85,92.79C26,135.18,23.45,236.17,31.66,265.2l8.2,29s-32.19-38.5-30.93-72"/></svg>